<?xml version="1.0" standalone="no"?>
<!DOCTYPE svg PUBLIC "-//W3C//DTD SVG 20010904//EN"
 "http://www.w3.org/TR/2001/REC-SVG-20010904/DTD/svg10.dtd">
<svg version="1.0" xmlns="http://www.w3.org/2000/svg"
 width="256.000000pt" height="256.000000pt" viewBox="0 0 256.000000 256.000000"
 preserveAspectRatio="xMidYMid meet">

<g transform="translate(0.000000,256.000000) scale(0.100000,-0.100000)"
fill="#000000" stroke="none">
<path d="M1616 2449 c-38 -6 -96 -54 -108 -89 -3 -10 -10 -8 -26 8 -29 29
-107 30 -163 2 -43 -22 -79 -71 -79 -108 0 -31 43 -69 88 -77 l37 -6 -65 -67
c-69 -71 -120 -157 -120 -204 0 -40 -16 -35 -28 10 l-10 37 -1 -33 c-1 -18 8
-54 18 -80 36 -87 35 -94 -12 -124 -23 -15 -63 -47 -89 -71 -27 -24 -50 -41
-53 -39 -11 12 -4 32 21 59 42 44 64 101 64 169 0 134 -99 241 -243 260 -119
17 -252 -74 -278 -190 -24 -109 23 -218 123 -279 37 -23 64 -31 125 -36 l78
-7 -48 -8 c-116 -20 -246 52 -296 164 -23 49 -28 140 -11 187 9 26 9 27 -5 9
-54 -71 -14 -246 72 -312 68 -52 119 -67 210 -62 79 4 83 3 83 -16 0 -12 4
-28 9 -35 7 -11 1 -25 -20 -48 -33 -39 -37 -73 -10 -97 13 -12 20 -36 24 -82
6 -82 50 -174 115 -244 42 -45 55 -52 126 -70 44 -11 110 -20 147 -20 l68 0 9
-33 c11 -38 0 -49 -96 -99 -44 -22 -82 -33 -122 -36 -53 -4 -61 -2 -84 21 -33
33 -33 62 0 92 40 38 95 43 184 19 37 -10 13 11 -29 25 -87 29 -184 0 -205
-62 -23 -63 40 -127 124 -127 56 0 98 16 181 70 l62 40 18 -40 c24 -53 70 -74
155 -68 161 10 249 135 144 206 -45 30 -118 30 -187 -3 -29 -13 -53 -29 -53
-35 0 -7 14 -3 34 9 100 62 252 15 217 -67 -29 -67 -160 -106 -242 -72 -29 12
-65 80 -71 134 -3 28 -1 29 57 41 33 7 77 20 97 28 36 15 37 16 27 54 -6 21
-17 60 -26 86 l-15 49 28 29 c15 16 31 29 36 29 4 0 9 -53 9 -117 l2 -118 8
135 c9 129 11 139 51 224 23 48 41 94 41 100 0 6 -32 60 -71 118 -39 59 -73
111 -74 115 -2 5 47 55 109 111 109 99 112 101 143 91 43 -15 107 -3 152 28
41 28 78 93 78 137 0 33 -24 82 -45 89 -13 5 -12 11 6 42 29 48 21 100 -21
138 -25 22 -40 27 -81 27 -28 0 -59 -5 -69 -10 -16 -9 -22 -5 -35 19 -30 59
-111 94 -189 80z m100 -25 c21 -10 45 -34 61 -61 19 -33 30 -42 42 -37 9 4 39
9 68 12 48 4 55 2 83 -26 34 -35 38 -64 11 -107 l-18 -30 35 -39 c31 -35 34
-43 29 -82 -9 -87 -89 -152 -168 -139 -41 7 -57 19 -39 30 5 3 10 11 10 18 0
6 -15 -3 -32 -19 -40 -37 -114 -94 -122 -94 -3 0 -13 12 -22 26 -17 25 -17 26
37 81 51 53 38 48 -38 -13 l-32 -25 -17 26 c-17 26 -17 26 32 77 49 51 39 49
-29 -5 l-36 -28 -31 22 -30 23 33 35 c59 64 63 77 8 28 -59 -52 -59 -52 -96
-35 -30 14 -31 19 -4 44 11 10 25 28 31 39 6 11 -10 1 -34 -23 -37 -36 -48
-41 -68 -34 l-23 8 34 40 34 39 -48 -43 c-72 -65 -71 -41 1 31 68 69 81 92 28
52 -31 -24 -38 -25 -74 -16 -50 14 -76 42 -68 74 15 61 92 114 147 102 17 -4
46 -20 64 -36 l34 -30 20 46 c16 36 29 50 63 65 53 24 80 25 124 4z m-792
-373 c82 -36 146 -130 146 -214 0 -88 -76 -194 -155 -216 -126 -34 -246 15
-300 122 -100 201 100 401 309 308z m530 -5 c57 -26 110 -74 156 -140 54 -80
55 -89 6 -134 -89 -82 -214 -130 -304 -117 -50 7 -63 19 -92 80 -32 66 -28 76
28 68 27 -3 59 -16 75 -29 40 -33 89 -45 135 -31 l37 11 -60 7 c-52 6 -63 12
-94 45 -33 36 -40 39 -91 39 l-55 0 3 44 c3 49 29 114 63 163 22 30 24 30 82
24 33 -3 83 -17 111 -30z m-288 -364 c-34 -49 -44 -103 -23 -121 9 -7 52 -18
96 -25 l80 -13 47 48 c39 40 146 109 168 109 10 0 146 -209 146 -226 0 -30
-59 -140 -102 -189 -48 -54 -105 -84 -162 -85 -51 0 -149 26 -205 55 -79 41
-77 36 -35 99 31 47 42 56 58 51 12 -3 59 -13 106 -21 47 -9 94 -21 105 -26
17 -9 17 -7 -3 15 -22 24 -23 29 -13 77 12 56 41 118 78 168 35 47 11 39 -31
-10 -34 -40 -76 -130 -76 -166 -1 -43 -28 -45 -151 -12 -36 10 -39 14 -39 45
0 30 -8 41 -62 84 -36 29 -74 51 -88 51 -22 1 -17 8 49 71 40 38 76 67 79 65
3 -3 -7 -23 -22 -44z m54 -7 c11 -20 11 -30 1 -52 -13 -27 -12 -27 8 -9 15 13
38 18 90 19 l70 2 -40 -41 c-39 -40 -40 -40 -92 -33 -29 4 -62 8 -75 8 -12 1
-25 7 -28 15 -6 15 34 116 46 116 3 0 13 -11 20 -25z m-235 -74 c6 -10 22 -41
37 -69 l28 -51 -26 -20 c-38 -30 -47 -27 -69 27 -31 74 -33 95 -10 114 25 22
28 22 40 -1z m141 -81 c71 -56 76 -92 23 -171 -37 -56 -58 -69 -110 -69 -26 0
-75 41 -62 53 3 4 -3 7 -13 7 -11 0 -32 13 -47 28 -49 51 -25 105 28 64 20
-16 32 -19 55 -12 41 12 48 17 64 48 12 23 12 31 0 52 -29 54 -9 54 62 0z
m-153 -242 c16 -16 37 -28 47 -28 11 0 23 -15 33 -40 13 -34 20 -40 44 -40 15
1 43 9 62 19 33 18 35 18 100 -5 51 -18 87 -24 161 -24 l95 0 18 -60 c9 -32
17 -64 17 -69 0 -13 -86 -38 -175 -50 -77 -11 -178 -1 -257 25 -34 11 -60 29
-88 62 -49 56 -108 172 -117 227 -7 45 -7 44 60 -17z m161 -33 c22 -17 15 -31
-19 -37 -18 -4 -29 0 -36 14 -19 36 17 52 55 23z"/>
<path d="M950 1835 c-46 -50 -96 -68 -172 -63 -37 3 -68 2 -68 -2 0 -9 41 -45
67 -59 85 -43 210 31 201 120 l-3 31 -25 -27z"/>
<path d="M1277 1967 c-8 -21 8 -39 29 -35 27 5 25 42 -2 46 -12 2 -24 -3 -27
-11z"/>
<path d="M1424 1905 c-8 -21 2 -45 19 -45 8 0 20 7 27 15 10 12 10 18 0 30 -7
8 -19 15 -27 15 -7 0 -16 -7 -19 -15z"/>
<path d="M215 491 c-3 -5 4 -12 15 -16 18 -6 20 -15 20 -97 0 -81 -2 -90 -20
-95 -40 -11 -18 -23 40 -23 33 0 60 4 60 10 0 6 -7 10 -15 10 -12 0 -15 17
-15 95 l0 95 50 0 50 0 0 -95 c0 -78 -3 -95 -15 -95 -8 0 -15 -4 -15 -10 0 -6
27 -10 63 -9 59 0 61 1 40 16 -21 14 -23 23 -23 104 0 79 2 88 20 94 11 4 18
11 15 16 -8 12 -262 12 -270 0z"/>
<path d="M1430 490 c0 -6 7 -13 15 -16 12 -5 15 -26 15 -100 0 -77 -3 -94 -15
-94 -8 0 -15 -4 -15 -10 0 -6 43 -10 110 -10 l110 0 0 43 -1 42 -27 -33 c-24
-29 -33 -33 -67 -30 -39 3 -40 4 -43 46 -3 40 -2 42 23 42 18 0 29 -6 32 -20
3 -11 12 -20 19 -20 10 0 14 14 14 50 0 55 -11 63 -39 28 -26 -31 -51 -18 -51
27 0 34 1 35 40 35 29 0 43 -5 52 -20 19 -29 28 -24 28 15 l0 35 -100 0 c-62
0 -100 -4 -100 -10z"/>
<path d="M536 409 c-20 -16 -26 -29 -26 -60 0 -52 12 -73 49 -89 34 -14 77 -7
103 17 37 34 31 107 -11 140 -25 20 -85 15 -115 -8z m94 -18 c28 -53 -8 -134
-49 -111 -33 17 -37 81 -9 118 15 18 46 15 58 -7z"/>
<path d="M700 421 c0 -5 7 -11 15 -15 11 -4 15 -21 15 -66 0 -47 -3 -60 -15
-60 -8 0 -15 -4 -15 -10 0 -6 31 -10 73 -10 59 0 77 4 90 18 21 23 21 31 1 53
-13 14 -13 20 -2 39 11 19 10 24 -11 41 -17 14 -39 19 -87 19 -35 0 -64 -4
-64 -9z m109 -20 c19 -12 6 -41 -19 -41 -13 0 -20 7 -20 18 0 31 14 39 39 23z
m6 -75 c25 -18 13 -46 -20 -46 -20 0 -25 5 -25 23 0 38 14 46 45 23z"/>
<path d="M920 412 c-26 -21 -20 -42 11 -42 12 0 19 7 19 20 0 25 35 27 44 3 8
-21 1 -28 -47 -43 -20 -6 -42 -20 -47 -31 -23 -41 34 -84 79 -59 15 7 27 8 40
0 21 -10 51 -4 51 11 0 5 -7 9 -15 9 -12 0 -15 14 -15 65 0 53 -3 66 -19 75
-30 16 -76 12 -101 -8z m80 -91 c0 -24 -25 -45 -45 -37 -20 7 -19 33 3 45 26
16 42 13 42 -8z"/>
<path d="M1070 419 c0 -5 7 -12 15 -15 23 -9 22 -194 -1 -194 -9 0 -14 -6 -11
-12 5 -16 99 -17 104 -2 2 6 -6 14 -17 17 -38 10 -20 39 24 42 77 4 115 97 62
149 -20 21 -33 24 -100 24 -42 0 -76 -4 -76 -9z m138 -31 c16 -16 16 -80 0
-96 -17 -17 -55 -15 -62 4 -8 21 -8 89 1 97 11 11 48 8 61 -5z"/>
<path d="M1660 421 c0 -5 7 -11 15 -15 11 -4 15 -21 15 -66 0 -47 -3 -60 -15
-60 -8 0 -15 -4 -15 -10 0 -6 59 -10 158 -10 133 1 154 3 140 14 -24 18 -26
124 -3 132 27 11 5 24 -41 24 -41 0 -57 -11 -34 -25 6 -3 10 -33 10 -66 0 -56
-1 -59 -25 -59 -24 0 -25 2 -25 65 0 37 4 65 10 65 6 0 10 5 10 10 0 6 -20 10
-45 10 -42 0 -58 -11 -35 -25 6 -3 10 -33 10 -66 0 -60 0 -60 -27 -57 -27 3
-28 6 -31 61 -2 44 0 59 12 63 32 12 15 24 -34 24 -27 0 -50 -4 -50 -9z"/>
<path d="M1980 420 c0 -6 7 -13 15 -16 11 -5 15 -21 15 -60 0 -39 -4 -56 -15
-60 -31 -12 -13 -24 35 -24 28 0 50 5 50 10 0 6 -7 10 -15 10 -9 0 -15 10 -15
26 0 34 21 27 40 -14 13 -27 20 -32 53 -32 20 0 37 5 37 10 0 6 -7 10 -15 10
-8 0 -19 9 -25 19 -5 11 -17 26 -25 35 -22 22 -2 60 26 51 22 -7 38 20 21 37
-19 19 -57 0 -75 -37 -9 -19 -21 -35 -27 -35 -16 0 -12 50 5 56 8 4 12 10 9
15 -7 13 -94 11 -94 -1z"/>
<path d="M2206 411 c-21 -23 -14 -41 15 -41 12 0 19 7 19 20 0 24 22 26 40 5
16 -19 7 -29 -43 -45 -44 -14 -63 -41 -47 -69 13 -26 41 -34 75 -21 19 7 31 7
41 -1 14 -12 54 -3 54 12 0 5 -7 9 -15 9 -12 0 -15 13 -15 59 0 41 -5 65 -16
75 -22 23 -87 21 -108 -3z m84 -90 c0 -24 -25 -45 -45 -37 -20 7 -19 33 3 45
26 16 42 13 42 -8z"/>
<path d="M1290 350 c0 -18 7 -20 60 -20 53 0 60 2 60 20 0 18 -7 20 -60 20
-53 0 -60 -2 -60 -20z"/>
</g>
</svg>
